ffmpeg started on 2025-06-04 at 19:34:15
Report written to "D:\Convert\FFMetrics\reports\ssim_report-6.txt"
Log level: 32
Command line:
ffmpeg -hide_banner -nostdin -i "G:\\\xc0\xed\xe8\xec\xe5\\\xce\xed\xe3\xee\xe8\xed\xe3\xe8\\!_36_\xce\xf1\xe5\xed\xfc_2024\\DreamCast\\\xc2\xfb \xef\xf0\xe0\xe2\xe4\xe0 \xe6\xe5\xed\xe8\xf2\xe5\xf1\xfc\\[DC] Kekkon Surutte Hontou Desuka - 07_Telegram_HEVC.mkv" -i "G:\\\xc0\xed\xe8\xec\xe5\\\xce\xed\xe3\xee\xe8\xed\xe3\xe8\\!_36_\xce\xf1\xe5\xed\xfc_2024\\DreamCast\\\xc2\xfb \xef\xf0\xe0\xe2\xe4\xe0 \xe6\xe5\xed\xe8\xf2\xe5\xf1\xfc\\[DC] Kekkon Surutte Hontou Desuka - 07_Telegram.mp4" -lavfi "[0:v]settb=AVTB,setpts=PTS-STARTPTS,format=pix_fmts=yuv420p10,fps=24000/1001,scale=1920:1080:flags=bicubic[main];[1:v]settb=AVTB,setpts=PTS-STARTPTS,format=pix_fmts=yuv420p,fps=24000/1001,scale=1920:1080:flags=bicubic[ref];[main][ref]ssim=eof_action=endall:stats_file='D\\:/Convert/FFMetrics/logs/ssim_logfile-6.txt'" -f null -
Input #0, matroska,webm, from 'G:\Аниме\Онгоинги\!_36_Осень_2024\DreamCast\Вы правда женитесь\[DC] Kekkon Surutte Hontou Desuka - 07_Telegram_HEVC.mkv':
  Metadata:
    COMPATIBLE_BRANDS: isomiso2avc1mp41
    MAJOR_BRAND     : isom
    MINOR_VERSION   : 512
    ENCODER         : Lavf61.7.100
  Duration: 00:23:48.65, start: -0.021000, bitrate: 1159 kb/s
  Stream #0:0: Video: hevc (Main 10), yuv420p10le(tv, bt709, progressive), 1920x1080 [SAR 1:1 DAR 16:9], 23.98 fps, 23.98 tbr, 1k tbn (default)
      Metadata:
        HANDLER_NAME    : VideoHandler
        VENDOR_ID       : [0][0][0][0]
        ENCODER         : Lavc61.19.100 libx265
        BPS             : 963304
        DURATION        : 00:23:46.549708333
        NUMBER_OF_FRAMES: 34203
        NUMBER_OF_BYTES : 171775196
        _STATISTICS_WRITING_APP: mkvpropedit v66.0.0 ('Josie') 64-bit
        _STATISTICS_WRITING_DATE_UTC: 2025-05-30 08:21:15
        _STATISTICS_TAGS: BPS DURATION NUMBER_OF_FRAMES NUMBER_OF_BYTES
  Stream #0:1: Audio: aac (LC), 48000 Hz, stereo, fltp (default)
      Metadata:
        HANDLER_NAME    : SoundHandler
        VENDOR_ID       : [0][0][0][0]
        ENCODER         : Lavc61.19.100 aac
        BPS             : 193323
        DURATION        : 00:23:48.650000000
        NUMBER_OF_FRAMES: 66969
        NUMBER_OF_BYTES : 34523951
        _STATISTICS_WRITING_APP: mkvpropedit v66.0.0 ('Josie') 64-bit
        _STATISTICS_WRITING_DATE_UTC: 2025-05-30 08:21:15
        _STATISTICS_TAGS: BPS DURATION NUMBER_OF_FRAMES NUMBER_OF_BYTES
Input #1, mov,mp4,m4a,3gp,3g2,mj2, from 'G:\Аниме\Онгоинги\!_36_Осень_2024\DreamCast\Вы правда женитесь\[DC] Kekkon Surutte Hontou Desuka - 07_Telegram.mp4':
  Metadata:
    major_brand     : isom
    minor_version   : 512
    compatible_brands: isomiso2avc1mp41
    encoder         : Lavf61.1.100
  Duration: 00:23:48.63, start: 0.000000, bitrate: 3826 kb/s
  Stream #1:0[0x1](und): Video: h264 (High) (avc1 / 0x31637661), yuv420p(tv, bt709, progressive), 1920x1080 [SAR 1:1 DAR 16:9], 3683 kb/s, 23.98 fps, 23.98 tbr, 24k tbn (default)
      Metadata:
        handler_name    : VideoHandler
        vendor_id       : [0][0][0][0]
        encoder         : Lavc61.3.100 h264_qsv
  Stream #1:1[0x2](und): Audio: aac (HE-AACv2) (mp4a / 0x6134706D), 48000 Hz, stereo, fltp, 144 kb/s (default)
      Metadata:
        handler_name    : SoundHandler
        vendor_id       : [0][0][0][0]
Stream mapping:
  Stream #0:0 (hevc) -> settb:default
  Stream #1:0 (h264) -> settb:default
  ssim:default -> Stream #0:0 (wrapped_avframe)
  Stream #0:1 -> #0:1 (aac (native) -> pcm_s16le (native))
Output #0, null, to 'pipe:':
  Metadata:
    COMPATIBLE_BRANDS: isomiso2avc1mp41
    MAJOR_BRAND     : isom
    MINOR_VERSION   : 512
    encoder         : Lavf61.7.100
  Stream #0:0: Video: wrapped_avframe, yuv420p10le(tv, bt709, progressive), 1920x1080 [SAR 1:1 DAR 16:9], q=2-31, 200 kb/s, 23.98 fps, 23.98 tbn
      Metadata:
        encoder         : Lavc61.19.100 wrapped_avframe
  Stream #0:1: Audio: pcm_s16le, 48000 Hz, stereo, s16, 1536 kb/s (default)
      Metadata:
        HANDLER_NAME    : SoundHandler
        VENDOR_ID       : [0][0][0][0]
        _STATISTICS_TAGS: BPS DURATION NUMBER_OF_FRAMES NUMBER_OF_BYTES
        BPS             : 193323
        DURATION        : 00:23:48.650000000
        NUMBER_OF_FRAMES: 66969
        NUMBER_OF_BYTES : 34523951
        _STATISTICS_WRITING_APP: mkvpropedit v66.0.0 ('Josie') 64-bit
        _STATISTICS_WRITING_DATE_UTC: 2025-05-30 08:21:15
        encoder         : Lavc61.19.100 pcm_s16le
frame=  176 fps=0.0 q=-0.0 size=N/A time=00:00:07.34 bitrate=N/A speed=14.1x    frame=  434 fps=423 q=-0.0 size=N/A time=00:00:18.10 bitrate=N/A speed=17.6x    frame=  719 fps=463 q=-0.0 size=N/A time=00:00:29.98 bitrate=N/A speed=19.3x    frame=  962 fps=467 q=-0.0 size=N/A time=00:00:40.12 bitrate=N/A speed=19.5x    frame= 1215 fps=471 q=-0.0 size=N/A time=00:00:50.67 bitrate=N/A speed=19.6x    frame= 1467 fps=473 q=-0.0 size=N/A time=00:01:01.18 bitrate=N/A speed=19.7x    frame= 1710 fps=473 q=-0.0 size=N/A time=00:01:11.32 bitrate=N/A speed=19.7x    frame= 1928 fps=468 q=-0.0 size=N/A time=00:01:20.41 bitrate=N/A speed=19.5x    frame= 2150 fps=463 q=-0.0 size=N/A time=00:01:29.67 bitrate=N/A speed=19.3x    frame= 2376 fps=461 q=-0.0 size=N/A time=00:01:39.09 bitrate=N/A speed=19.2x    frame= 2566 fps=452 q=-0.0 size=N/A time=00:01:47.02 bitrate=N/A speed=18.9x    frame= 2750 fps=445 q=-0.0 size=N/A time=00:01:54.69 bitrate=N/A speed=18.5x    frame= 2954 fps=440 q=-0.0 size=N/A time=00:02:03.20 bitrate=N/A speed=18.4x    frame= 3171 fps=440 q=-0.0 size=N/A time=00:02:12.25 bitrate=N/A speed=18.3x    frame= 3418 fps=442 q=-0.0 size=N/A time=00:02:22.55 bitrate=N/A speed=18.4x    frame= 3650 fps=443 q=-0.0 size=N/A time=00:02:32.23 bitrate=N/A speed=18.5x    frame= 3865 fps=441 q=-0.0 size=N/A time=00:02:41.20 bitrate=N/A speed=18.4x    frame= 4144 fps=446 q=-0.0 size=N/A time=00:02:52.83 bitrate=N/A speed=18.6x    frame= 4400 fps=449 q=-0.0 size=N/A time=00:03:03.51 bitrate=N/A speed=18.7x    frame= 4661 fps=452 q=-0.0 size=N/A time=00:03:14.40 bitrate=N/A speed=18.9x    frame= 4915 fps=454 q=-0.0 size=N/A time=00:03:24.99 bitrate=N/A speed=18.9x    frame= 5161 fps=455 q=-0.0 size=N/A time=00:03:35.25 bitrate=N/A speed=  19x    frame= 5403 fps=456 q=-0.0 size=N/A time=00:03:45.35 bitrate=N/A speed=  19x    frame= 5637 fps=455 q=-0.0 size=N/A time=00:03:55.10 bitrate=N/A speed=  19x    frame= 5865 fps=455 q=-0.0 size=N/A time=00:04:04.66 bitrate=N/A speed=  19x    frame= 6103 fps=455 q=-0.0 size=N/A time=00:04:14.54 bitrate=N/A speed=  19x    frame= 6362 fps=457 q=-0.0 size=N/A time=00:04:25.34 bitrate=N/A speed=19.1x    frame= 6595 fps=457 q=-0.0 size=N/A time=00:04:35.06 bitrate=N/A speed=19.1x    frame= 6842 fps=457 q=-0.0 size=N/A time=00:04:45.36 bitrate=N/A speed=19.1x    frame= 7085 fps=457 q=-0.0 size=N/A time=00:04:55.50 bitrate=N/A speed=19.1x    frame= 7311 fps=457 q=-0.0 size=N/A time=00:05:04.92 bitrate=N/A speed=19.1x    frame= 7544 fps=457 q=-0.0 size=N/A time=00:05:14.64 bitrate=N/A speed=19.1x    frame= 7775 fps=456 q=-0.0 size=N/A time=00:05:24.28 bitrate=N/A speed=  19x    frame= 8029 fps=457 q=-0.0 size=N/A time=00:05:34.87 bitrate=N/A speed=19.1x    frame= 8287 fps=459 q=-0.0 size=N/A time=00:05:45.63 bitrate=N/A speed=19.1x    frame= 8562 fps=461 q=-0.0 size=N/A time=00:05:57.10 bitrate=N/A speed=19.2x    frame= 8813 fps=462 q=-0.0 size=N/A time=00:06:07.57 bitrate=N/A speed=19.3x    frame= 9086 fps=463 q=-0.0 size=N/A time=00:06:18.96 bitrate=N/A speed=19.3x    frame= 9322 fps=463 q=-0.0 size=N/A time=00:06:28.80 bitrate=N/A speed=19.3x    frame= 9571 fps=464 q=-0.0 size=N/A time=00:06:39.19 bitrate=N/A speed=19.3x    frame= 9833 fps=465 q=-0.0 size=N/A time=00:06:50.11 bitrate=N/A speed=19.4x    frame=10061 fps=464 q=-0.0 size=N/A time=00:06:59.62 bitrate=N/A speed=19.4x    frame=10328 fps=465 q=-0.0 size=N/A time=00:07:10.76 bitrate=N/A speed=19.4x    frame=10579 fps=466 q=-0.0 size=N/A time=00:07:21.23 bitrate=N/A speed=19.4x    frame=10825 fps=466 q=-0.0 size=N/A time=00:07:31.49 bitrate=N/A speed=19.4x    frame=11044 fps=465 q=-0.0 size=N/A time=00:07:40.62 bitrate=N/A speed=19.4x    frame=11293 fps=465 q=-0.0 size=N/A time=00:07:51.01 bitrate=N/A speed=19.4x    frame=11539 fps=466 q=-0.0 size=N/A time=00:08:01.27 bitrate=N/A speed=19.4x    frame=11744 fps=464 q=-0.0 size=N/A time=00:08:09.82 bitrate=N/A speed=19.4x    frame=11980 fps=464 q=-0.0 size=N/A time=00:08:19.66 bitrate=N/A speed=19.4x    frame=12256 fps=465 q=-0.0 size=N/A time=00:08:31.17 bitrate=N/A speed=19.4x    frame=12515 fps=466 q=-0.0 size=N/A time=00:08:41.97 bitrate=N/A speed=19.4x    frame=12756 fps=466 q=-0.0 size=N/A time=00:08:52.03 bitrate=N/A speed=19.4x    frame=13023 fps=467 q=-0.0 size=N/A time=00:09:03.16 bitrate=N/A speed=19.5x    frame=13275 fps=467 q=-0.0 size=N/A time=00:09:13.67 bitrate=N/A speed=19.5x    frame=13521 fps=467 q=-0.0 size=N/A time=00:09:23.93 bitrate=N/A speed=19.5x    frame=13777 fps=468 q=-0.0 size=N/A time=00:09:34.61 bitrate=N/A speed=19.5x    frame=14030 fps=468 q=-0.0 size=N/A time=00:09:45.16 bitrate=N/A speed=19.5x    frame=14281 fps=469 q=-0.0 size=N/A time=00:09:55.63 bitrate=N/A speed=19.6x    frame=14535 fps=469 q=-0.0 size=N/A time=00:10:06.23 bitrate=N/A speed=19.6x    frame=14770 fps=469 q=-0.0 size=N/A time=00:10:16.03 bitrate=N/A speed=19.6x    frame=15003 fps=469 q=-0.0 size=N/A time=00:10:25.75 bitrate=N/A speed=19.5x    frame=15239 fps=468 q=-0.0 size=N/A time=00:10:35.59 bitrate=N/A speed=19.5x    frame=15481 fps=468 q=-0.0 size=N/A time=00:10:45.68 bitrate=N/A speed=19.5x    frame=15744 fps=469 q=-0.0 size=N/A time=00:10:56.65 bitrate=N/A speed=19.6x    frame=15997 fps=469 q=-0.0 size=N/A time=00:11:07.20 bitrate=N/A speed=19.6x    frame=16241 fps=469 q=-0.0 size=N/A time=00:11:17.38 bitrate=N/A speed=19.6x    frame=16484 fps=470 q=-0.0 size=N/A time=00:11:27.52 bitrate=N/A speed=19.6x    frame=16715 fps=469 q=-0.0 size=N/A time=00:11:37.15 bitrate=N/A speed=19.6x    frame=16967 fps=469 q=-0.0 size=N/A time=00:11:47.70 bitrate=N/A speed=19.6x    frame=17213 fps=470 q=-0.0 size=N/A time=00:11:57.92 bitrate=N/A speed=19.6x    frame=17445 fps=469 q=-0.0 size=N/A time=00:12:07.60 bitrate=N/A speed=19.6x    frame=17697 fps=470 q=-0.0 size=N/A time=00:12:18.11 bitrate=N/A speed=19.6x    frame=17949 fps=470 q=-0.0 size=N/A time=00:12:28.62 bitrate=N/A speed=19.6x    frame=18209 fps=470 q=-0.0 size=N/A time=00:12:39.46 bitrate=N/A speed=19.6x    frame=18435 fps=470 q=-0.0 size=N/A time=00:12:48.89 bitrate=N/A speed=19.6x    frame=18662 fps=469 q=-0.0 size=N/A time=00:12:58.36 bitrate=N/A speed=19.6x    frame=18943 fps=470 q=-0.0 size=N/A time=00:13:10.08 bitrate=N/A speed=19.6x    frame=19176 fps=470 q=-0.0 size=N/A time=00:13:19.79 bitrate=N/A speed=19.6x    frame=19430 fps=470 q=-0.0 size=N/A time=00:13:30.39 bitrate=N/A speed=19.6x    frame=19643 fps=470 q=-0.0 size=N/A time=00:13:39.27 bitrate=N/A speed=19.6x    frame=19895 fps=470 q=-0.0 size=N/A time=00:13:49.78 bitrate=N/A speed=19.6x    frame=20141 fps=470 q=-0.0 size=N/A time=00:14:00.04 bitrate=N/A speed=19.6x    frame=20387 fps=470 q=-0.0 size=N/A time=00:14:10.30 bitrate=N/A speed=19.6x    frame=20619 fps=470 q=-0.0 size=N/A time=00:14:19.98 bitrate=N/A speed=19.6x    frame=20874 fps=470 q=-0.0 size=N/A time=00:14:30.61 bitrate=N/A speed=19.6x    frame=21125 fps=470 q=-0.0 size=N/A time=00:14:41.08 bitrate=N/A speed=19.6x    frame=21404 fps=471 q=-0.0 size=N/A time=00:14:52.72 bitrate=N/A speed=19.7x    frame=21664 fps=472 q=-0.0 size=N/A time=00:15:03.56 bitrate=N/A speed=19.7x    frame=21933 fps=472 q=-0.0 size=N/A time=00:15:14.78 bitrate=N/A speed=19.7x    frame=22184 fps=472 q=-0.0 size=N/A time=00:15:25.25 bitrate=N/A speed=19.7x    frame=22419 fps=472 q=-0.0 size=N/A time=00:15:35.05 bitrate=N/A speed=19.7x    frame=22621 fps=471 q=-0.0 size=N/A time=00:15:43.48 bitrate=N/A speed=19.7x    frame=22868 fps=471 q=-0.0 size=N/A time=00:15:53.78 bitrate=N/A speed=19.7x    frame=23087 fps=471 q=-0.0 size=N/A time=00:16:02.92 bitrate=N/A speed=19.6x    frame=23365 fps=471 q=-0.0 size=N/A time=00:16:14.51 bitrate=N/A speed=19.7x    frame=23628 fps=472 q=-0.0 size=N/A time=00:16:25.48 bitrate=N/A speed=19.7x    frame=23908 fps=473 q=-0.0 size=N/A time=00:16:37.16 bitrate=N/A speed=19.7x    frame=24146 fps=473 q=-0.0 size=N/A time=00:16:47.08 bitrate=N/A speed=19.7x    frame=24404 fps=473 q=-0.0 size=N/A time=00:16:57.85 bitrate=N/A speed=19.7x    frame=24646 fps=473 q=-0.0 size=N/A time=00:17:07.94 bitrate=N/A speed=19.7x    frame=24907 fps=473 q=-0.0 size=N/A time=00:17:18.82 bitrate=N/A speed=19.7x    frame=25161 fps=473 q=-0.0 size=N/A time=00:17:29.42 bitrate=N/A speed=19.7x    frame=25355 fps=472 q=-0.0 size=N/A time=00:17:37.51 bitrate=N/A speed=19.7x    frame=25568 fps=472 q=-0.0 size=N/A time=00:17:46.39 bitrate=N/A speed=19.7x    frame=25788 fps=471 q=-0.0 size=N/A time=00:17:55.57 bitrate=N/A speed=19.7x    frame=26012 fps=471 q=-0.0 size=N/A time=00:18:04.91 bitrate=N/A speed=19.6x    frame=26250 fps=471 q=-0.0 size=N/A time=00:18:14.84 bitrate=N/A speed=19.6x    frame=26460 fps=470 q=-0.0 size=N/A time=00:18:23.60 bitrate=N/A speed=19.6x    frame=26665 fps=470 q=-0.0 size=N/A time=00:18:32.15 bitrate=N/A speed=19.6x    frame=26910 fps=470 q=-0.0 size=N/A time=00:18:42.37 bitrate=N/A speed=19.6x    frame=27159 fps=470 q=-0.0 size=N/A time=00:18:52.75 bitrate=N/A speed=19.6x    frame=27389 fps=470 q=-0.0 size=N/A time=00:19:02.34 bitrate=N/A speed=19.6x    frame=27597 fps=469 q=-0.0 size=N/A time=00:19:11.02 bitrate=N/A speed=19.6x    frame=27792 fps=468 q=-0.0 size=N/A time=00:19:19.15 bitrate=N/A speed=19.5x    frame=27984 fps=467 q=-0.0 size=N/A time=00:19:27.16 bitrate=N/A speed=19.5x    frame=28262 fps=468 q=-0.0 size=N/A time=00:19:38.76 bitrate=N/A speed=19.5x    frame=28512 fps=468 q=-0.0 size=N/A time=00:19:49.18 bitrate=N/A speed=19.5x    frame=28758 fps=468 q=-0.0 size=N/A time=00:19:59.44 bitrate=N/A speed=19.5x    frame=28990 fps=468 q=-0.0 size=N/A time=00:20:09.12 bitrate=N/A speed=19.5x    frame=29212 fps=468 q=-0.0 size=N/A time=00:20:18.38 bitrate=N/A speed=19.5x    frame=29423 fps=467 q=-0.0 size=N/A time=00:20:27.18 bitrate=N/A speed=19.5x    frame=29631 fps=467 q=-0.0 size=N/A time=00:20:35.85 bitrate=N/A speed=19.5x    frame=29846 fps=466 q=-0.0 size=N/A time=00:20:44.82 bitrate=N/A speed=19.4x    frame=30078 fps=466 q=-0.0 size=N/A time=00:20:54.50 bitrate=N/A speed=19.4x    frame=30327 fps=466 q=-0.0 size=N/A time=00:21:04.88 bitrate=N/A speed=19.4x    frame=30592 fps=467 q=-0.0 size=N/A time=00:21:15.94 bitrate=N/A speed=19.5x    frame=30870 fps=467 q=-0.0 size=N/A time=00:21:27.53 bitrate=N/A speed=19.5x    frame=31137 fps=468 q=-0.0 size=N/A time=00:21:38.67 bitrate=N/A speed=19.5x    frame=31387 fps=468 q=-0.0 size=N/A time=00:21:49.09 bitrate=N/A speed=19.5x    frame=31636 fps=468 q=-0.0 size=N/A time=00:21:59.48 bitrate=N/A speed=19.5x    frame=31876 fps=468 q=-0.0 size=N/A time=00:22:09.49 bitrate=N/A speed=19.5x    frame=32095 fps=468 q=-0.0 size=N/A time=00:22:18.62 bitrate=N/A speed=19.5x    frame=32225 fps=466 q=-0.0 size=N/A time=00:22:24.05 bitrate=N/A speed=19.4x    frame=32404 fps=465 q=-0.0 size=N/A time=00:22:31.51 bitrate=N/A speed=19.4x    frame=32595 fps=464 q=-0.0 size=N/A time=00:22:39.48 bitrate=N/A speed=19.4x    frame=32747 fps=463 q=-0.0 size=N/A time=00:22:45.82 bitrate=N/A speed=19.3x    frame=32914 fps=462 q=-0.0 size=N/A time=00:22:52.78 bitrate=N/A speed=19.3x    frame=33080 fps=461 q=-0.0 size=N/A time=00:22:59.71 bitrate=N/A speed=19.2x    frame=33246 fps=460 q=-0.0 size=N/A time=00:23:06.63 bitrate=N/A speed=19.2x    frame=33427 fps=459 q=-0.0 size=N/A time=00:23:14.18 bitrate=N/A speed=19.2x    frame=33611 fps=459 q=-0.0 size=N/A time=00:23:21.85 bitrate=N/A speed=19.1x    frame=33785 fps=458 q=-0.0 size=N/A time=00:23:29.11 bitrate=N/A speed=19.1x    frame=33937 fps=457 q=-0.0 size=N/A time=00:23:35.45 bitrate=N/A speed=  19x    frame=34129 fps=456 q=-0.0 size=N/A time=00:23:43.46 bitrate=N/A speed=  19x    [Parsed_ssim_10 @ 000002c712a33040] SSIM Y:0.994300 (22.441175) U:0.994250 (22.403201) V:0.994786 (22.828229) All:0.994373 (22.496892)
[out#0/null @ 000002c7059af080] video:14697KiB audio:267876KiB subtitle:0KiB other streams:0KiB global headers:0KiB muxing overhead: unknown
frame=34203 fps=456 q=-0.0 Lsize=N/A time=00:23:46.55 bitrate=N/A speed=  19x    
